<svg xmlns="http://www.w3.org/2000/svg" viewBox="0 0 1920 460">
<defs><linearGradient id="gold" x1="0" y1="0" x2="0" y2="1"><stop offset="0" stop-color="#F6DD8A"/><stop offset=".5" stop-color="#D4AF37"/><stop offset="1" stop-color="#9A7B22"/></linearGradient>
<linearGradient id="sky" x1="0" y1="0" x2="0" y2="1"><stop offset="0" stop-color="#1b0d0d"/><stop offset=".55" stop-color="#120a0c"/><stop offset="1" stop-color="#0E0E12"/></linearGradient>
<radialGradient id="glow" cx=".62" cy=".42" r=".5"><stop offset="0" stop-color="#C0392B" stop-opacity=".55"/><stop offset="1" stop-color="#C0392B" stop-opacity="0"/></radialGradient>
<linearGradient id="vig" x1="0" y1="0" x2="1" y2="0"><stop offset="0" stop-color="#000" stop-opacity=".85"/><stop offset=".4" stop-color="#000" stop-opacity="0"/></linearGradient>
</defs>
<rect width="1920" height="460" fill="url(#sky)"/>
<rect width="1920" height="460" fill="url(#glow)"/>
<g fill="#000000" opacity="0.55"><path d="M6.0 460 L6.0 344.5 Q106.66666666666667 248 207.33333333333334 344.5 L207.33333333333334 460 Z"/><path d="M219.33333333333334 460 L219.33333333333334 344.5 Q320.0 248 420.6666666666667 344.5 L420.6666666666667 460 Z"/><path d="M432.6666666666667 460 L432.6666666666667 344.5 Q533.3333333333334 248 634.0 344.5 L634.0 460 Z"/><path d="M646.0 460 L646.0 344.5 Q746.6666666666666 248 847.3333333333334 344.5 L847.3333333333334 460 Z"/><path d="M859.3333333333334 460 L859.3333333333334 344.5 Q960.0 248 1060.6666666666667 344.5 L1060.6666666666667 460 Z"/><path d="M1072.6666666666667 460 L1072.6666666666667 344.5 Q1173.3333333333335 248 1274.0 344.5 L1274.0 460 Z"/><path d="M1286.0 460 L1286.0 344.5 Q1386.6666666666667 248 1487.3333333333333 344.5 L1487.3333333333333 460 Z"/><path d="M1499.3333333333335 460 L1499.3333333333335 344.5 Q1600.0000000000002 248 1700.6666666666667 344.5 L1700.6666666666667 460 Z"/><path d="M1712.6666666666667 460 L1712.6666666666667 344.5 Q1813.3333333333335 248 1914.0 344.5 L1914.0 460 Z"/></g>
<g fill="#2a2014" opacity="0.9"><path d="M6.0 460 L6.0 372.0 Q68.57142857142857 298 131.14285714285714 372.0 L131.14285714285714 460 Z"/><path d="M143.14285714285714 460 L143.14285714285714 372.0 Q205.71428571428572 298 268.2857142857143 372.0 L268.2857142857143 460 Z"/><path d="M280.2857142857143 460 L280.2857142857143 372.0 Q342.85714285714283 298 405.42857142857144 372.0 L405.42857142857144 460 Z"/><path d="M417.42857142857144 460 L417.42857142857144 372.0 Q480.0 298 542.5714285714286 372.0 L542.5714285714286 460 Z"/><path d="M554.5714285714286 460 L554.5714285714286 372.0 Q617.1428571428571 298 679.7142857142857 372.0 L679.7142857142857 460 Z"/><path d="M691.7142857142857 460 L691.7142857142857 372.0 Q754.2857142857142 298 816.8571428571428 372.0 L816.8571428571428 460 Z"/><path d="M828.8571428571429 460 L828.8571428571429 372.0 Q891.4285714285714 298 954.0 372.0 L954.0 460 Z"/><path d="M966.0 460 L966.0 372.0 Q1028.5714285714287 298 1091.142857142857 372.0 L1091.142857142857 460 Z"/><path d="M1103.142857142857 460 L1103.142857142857 372.0 Q1165.7142857142858 298 1228.2857142857142 372.0 L1228.2857142857142 460 Z"/><path d="M1240.2857142857142 460 L1240.2857142857142 372.0 Q1302.857142857143 298 1365.4285714285713 372.0 L1365.4285714285713 460 Z"/><path d="M1377.4285714285713 460 L1377.4285714285713 372.0 Q1440.0 298 1502.5714285714284 372.0 L1502.5714285714284 460 Z"/><path d="M1514.5714285714284 460 L1514.5714285714284 372.0 Q1577.142857142857 298 1639.7142857142856 372.0 L1639.7142857142856 460 Z"/><path d="M1651.7142857142858 460 L1651.7142857142858 372.0 Q1714.2857142857144 298 1776.857142857143 372.0 L1776.857142857143 460 Z"/><path d="M1788.857142857143 460 L1788.857142857143 372.0 Q1851.4285714285716 298 1914.0 372.0 L1914.0 460 Z"/></g>
<g fill="#1a140c" opacity="1"><path d="M6.0 480 L6.0 397.5 Q68.57142857142857 328 131.14285714285714 397.5 L131.14285714285714 480 Z"/><path d="M143.14285714285714 480 L143.14285714285714 397.5 Q205.71428571428572 328 268.2857142857143 397.5 L268.2857142857143 480 Z"/><path d="M280.2857142857143 480 L280.2857142857143 397.5 Q342.85714285714283 328 405.42857142857144 397.5 L405.42857142857144 480 Z"/><path d="M417.42857142857144 480 L417.42857142857144 397.5 Q480.0 328 542.5714285714286 397.5 L542.5714285714286 480 Z"/><path d="M554.5714285714286 480 L554.5714285714286 397.5 Q617.1428571428571 328 679.7142857142857 397.5 L679.7142857142857 480 Z"/><path d="M691.7142857142857 480 L691.7142857142857 397.5 Q754.2857142857142 328 816.8571428571428 397.5 L816.8571428571428 480 Z"/><path d="M828.8571428571429 480 L828.8571428571429 397.5 Q891.4285714285714 328 954.0 397.5 L954.0 480 Z"/><path d="M966.0 480 L966.0 397.5 Q1028.5714285714287 328 1091.142857142857 397.5 L1091.142857142857 480 Z"/><path d="M1103.142857142857 480 L1103.142857142857 397.5 Q1165.7142857142858 328 1228.2857142857142 397.5 L1228.2857142857142 480 Z"/><path d="M1240.2857142857142 480 L1240.2857142857142 397.5 Q1302.857142857143 328 1365.4285714285713 397.5 L1365.4285714285713 480 Z"/><path d="M1377.4285714285713 480 L1377.4285714285713 397.5 Q1440.0 328 1502.5714285714284 397.5 L1502.5714285714284 480 Z"/><path d="M1514.5714285714284 480 L1514.5714285714284 397.5 Q1577.142857142857 328 1639.7142857142856 397.5 L1639.7142857142856 480 Z"/><path d="M1651.7142857142858 480 L1651.7142857142858 397.5 Q1714.2857142857144 328 1776.857142857143 397.5 L1776.857142857143 480 Z"/><path d="M1788.857142857143 480 L1788.857142857143 397.5 Q1851.4285714285716 328 1914.0 397.5 L1914.0 480 Z"/></g>
<g><circle cx="663" cy="117" r="4" fill="#D4AF37" opacity="0.44"/><circle cx="1681" cy="314" r="2" fill="#D4AF37" opacity="0.31"/><circle cx="1863" cy="299" r="2" fill="#E0B341" opacity="0.17"/><circle cx="856" cy="75" r="2" fill="#E0B341" opacity="0.19"/><circle cx="121" cy="329" r="2" fill="#C0392B" opacity="0.58"/><circle cx="1284" cy="338" r="2" fill="#E0B341" opacity="0.41"/><circle cx="101" cy="153" r="2" fill="#D4AF37" opacity="0.40"/><circle cx="593" cy="254" r="2" fill="#C0392B" opacity="0.39"/><circle cx="631" cy="326" r="2" fill="#C0392B" opacity="0.20"/><circle cx="1308" cy="136" r="3" fill="#C0392B" opacity="0.19"/><circle cx="128" cy="328" r="2" fill="#E0B341" opacity="0.43"/><circle cx="1393" cy="312" r="4" fill="#E0B341" opacity="0.50"/><circle cx="1199" cy="272" r="3" fill="#D4AF37" opacity="0.28"/><circle cx="1431" cy="164" r="2" fill="#C0392B" opacity="0.41"/><circle cx="1013" cy="215" r="4" fill="#D4AF37" opacity="0.28"/><circle cx="241" cy="302" r="4" fill="#E0B341" opacity="0.22"/><circle cx="311" cy="290" r="4" fill="#C0392B" opacity="0.17"/><circle cx="158" cy="325" r="3" fill="#E0B341" opacity="0.30"/><circle cx="1217" cy="294" r="4" fill="#D4AF37" opacity="0.18"/><circle cx="552" cy="282" r="2" fill="#C0392B" opacity="0.18"/><circle cx="634" cy="371" r="4" fill="#E0B341" opacity="0.28"/><circle cx="1816" cy="382" r="3" fill="#E0B341" opacity="0.16"/><circle cx="727" cy="126" r="2" fill="#D4AF37" opacity="0.37"/><circle cx="1573" cy="187" r="2" fill="#E0B341" opacity="0.48"/><circle cx="800" cy="294" r="2" fill="#E0B341" opacity="0.22"/><circle cx="1125" cy="182" r="2" fill="#C0392B" opacity="0.52"/><circle cx="570" cy="252" r="3" fill="#E0B341" opacity="0.46"/><circle cx="472" cy="117" r="2" fill="#D4AF37" opacity="0.23"/><circle cx="1348" cy="159" r="2" fill="#C0392B" opacity="0.37"/><circle cx="373" cy="174" r="3" fill="#E0B341" opacity="0.15"/><circle cx="1094" cy="229" r="3" fill="#C0392B" opacity="0.58"/><circle cx="1759" cy="303" r="2" fill="#C0392B" opacity="0.36"/><circle cx="1634" cy="326" r="4" fill="#E0B341" opacity="0.33"/><circle cx="212" cy="286" r="4" fill="#D4AF37" opacity="0.18"/><circle cx="427" cy="265" r="2" fill="#C0392B" opacity="0.20"/><circle cx="107" cy="92" r="2" fill="#C0392B" opacity="0.41"/><circle cx="207" cy="226" r="2" fill="#D4AF37" opacity="0.18"/><circle cx="1257" cy="232" r="2" fill="#E0B341" opacity="0.44"/><circle cx="1233" cy="226" r="4" fill="#E0B341" opacity="0.21"/><circle cx="954" cy="285" r="4" fill="#D4AF37" opacity="0.29"/><circle cx="209" cy="215" r="3" fill="#C0392B" opacity="0.37"/><circle cx="330" cy="304" r="2" fill="#C0392B" opacity="0.24"/><circle cx="740" cy="115" r="2" fill="#E0B341" opacity="0.49"/><circle cx="1316" cy="86" r="3" fill="#D4AF37" opacity="0.38"/><circle cx="728" cy="154" r="3" fill="#C0392B" opacity="0.44"/><circle cx="1661" cy="139" r="2" fill="#C0392B" opacity="0.52"/><circle cx="1645" cy="156" r="2" fill="#E0B341" opacity="0.38"/><circle cx="1497" cy="54" r="2" fill="#E0B341" opacity="0.51"/><circle cx="530" cy="139" r="3" fill="#C0392B" opacity="0.35"/><circle cx="715" cy="226" r="2" fill="#D4AF37" opacity="0.25"/><circle cx="962" cy="140" r="3" fill="#C0392B" opacity="0.24"/><circle cx="1843" cy="352" r="2" fill="#C0392B" opacity="0.37"/><circle cx="704" cy="369" r="2" fill="#D4AF37" opacity="0.53"/><circle cx="1863" cy="238" r="2" fill="#D4AF37" opacity="0.37"/><circle cx="888" cy="365" r="3" fill="#C0392B" opacity="0.19"/><circle cx="810" cy="277" r="4" fill="#D4AF37" opacity="0.48"/><circle cx="1484" cy="121" r="2" fill="#D4AF37" opacity="0.60"/><circle cx="309" cy="342" r="4" fill="#D4AF37" opacity="0.51"/><circle cx="1252" cy="345" r="4" fill="#E0B341" opacity="0.45"/><circle cx="319" cy="320" r="2" fill="#C0392B" opacity="0.16"/></g>
<rect x="1640" y="120" width="34" height="300" fill="#241c12"/><rect x="1632" y="108" width="50" height="20" fill="url(#gold)"/><rect x="1636" y="416" width="42" height="16" fill="url(#gold)"/>
<rect x="1740" y="120" width="34" height="300" fill="#241c12"/><rect x="1732" y="108" width="50" height="20" fill="url(#gold)"/><rect x="1736" y="416" width="42" height="16" fill="url(#gold)"/>
<rect width="1920" height="6" y="0" fill="#9B1C1C" opacity=".5"/>
<rect width="1920" height="6" y="454" fill="url(#gold)" opacity=".7"/>
<rect width="1920" height="460" fill="url(#vig)"/>
</svg>
