<svg xmlns="http://www.w3.org/2000/svg" viewBox="0 0 256 348"><defs><linearGradient id="gold" x1="0" y1="0" x2="0" y2="1"><stop offset="0" stop-color="#F6DD8A"/><stop offset=".5" stop-color="#D4AF37"/><stop offset="1" stop-color="#9A7B22"/></linearGradient>
<linearGradient id="steel" x1="0" y1="0" x2="1" y2="0"><stop offset="0" stop-color="#B8901F"/><stop offset=".5" stop-color="#F6DD8A"/><stop offset="1" stop-color="#B8901F"/></linearGradient>
<radialGradient id="tg" cx=".5" cy=".42" r=".6"><stop offset="0" stop-color="#241c12"/><stop offset="1" stop-color="#0E0E12"/></radialGradient></defs>
<rect x="6" y="6" width="244" height="336" rx="14" fill="url(#tg)" stroke="url(#gold)" stroke-width="4"/>
<rect x="16" y="16" width="224" height="316" rx="10" fill="none" stroke="#9B1C1C" stroke-width="2" opacity=".7"/>
<g transform="translate(128,150)"><circle r="78" fill="none" stroke="url(#gold)" stroke-width="10"/><circle r="16" fill="url(#gold)"/>
<g stroke="url(#gold)" stroke-width="9"><line x1="0" y1="0" x2="74" y2="0"/><line x1="0" y1="0" x2="52" y2="52"/><line x1="0" y1="0" x2="0" y2="73"/><line x1="0" y1="0" x2="-52" y2="52"/><line x1="0" y1="0" x2="-73" y2="0"/><line x1="0" y1="0" x2="-52" y2="-52"/><line x1="0" y1="0" x2="0" y2="-73"/><line x1="0" y1="0" x2="52" y2="-52"/></g></g>
<path d="M60 250 q68 -40 136 0" fill="none" stroke="#C0392B" stroke-width="6"/></svg>
