<svg xmlns="http://www.w3.org/2000/svg" viewBox="0 0 256 348"><defs><linearGradient id="gold" x1="0" y1="0" x2="0" y2="1"><stop offset="0" stop-color="#F6DD8A"/><stop offset=".5" stop-color="#D4AF37"/><stop offset="1" stop-color="#9A7B22"/></linearGradient>
<linearGradient id="steel" x1="0" y1="0" x2="1" y2="0"><stop offset="0" stop-color="#B8901F"/><stop offset=".5" stop-color="#F6DD8A"/><stop offset="1" stop-color="#B8901F"/></linearGradient>
<radialGradient id="tg" cx=".5" cy=".42" r=".6"><stop offset="0" stop-color="#241c12"/><stop offset="1" stop-color="#0E0E12"/></radialGradient></defs>
<rect x="6" y="6" width="244" height="336" rx="14" fill="url(#tg)" stroke="url(#gold)" stroke-width="4"/>
<rect x="16" y="16" width="224" height="316" rx="10" fill="none" stroke="#9B1C1C" stroke-width="2" opacity=".7"/>
<g transform="translate(128,170) scale(0.5) translate(-256,-256)">
      <path d="M256 150 L350 178 Q352 300 256 360 Q160 300 162 178 Z" fill="#14110c" stroke="url(#gold)" stroke-width="7"/>
      <path d="M256 168 L332 190 Q333 290 256 340 Q179 290 180 190 Z" fill="none" stroke="#9B1C1C" stroke-width="6" opacity=".9"/>
      <g transform="rotate(28 256 300)"><polygon points="256,96 268,118 268,250 244,250 244,118" fill="url(#steel)" stroke="#6e5a1f" stroke-width="2"/><rect x="222" y="250" width="68" height="15" rx="4" fill="url(#gold)" stroke="#6e5a1f" stroke-width="2"/><rect x="247" y="265" width="18" height="48" rx="4" fill="#6e5a1f"/><circle cx="256" cy="320" r="13" fill="url(#gold)" stroke="#6e5a1f" stroke-width="2"/></g>
      <g transform="rotate(-28 256 300)"><polygon points="256,96 268,118 268,250 244,250 244,118" fill="url(#steel)" stroke="#6e5a1f" stroke-width="2"/><rect x="222" y="250" width="68" height="15" rx="4" fill="url(#gold)" stroke="#6e5a1f" stroke-width="2"/><rect x="247" y="265" width="18" height="48" rx="4" fill="#6e5a1f"/><circle cx="256" cy="320" r="13" fill="url(#gold)" stroke="#6e5a1f" stroke-width="2"/></g>
    </g></svg>
